<?xml version="1.0" encoding="utf-8"?>
<!-- Svg Vector Icons : http://www.onlinewebfonts.com/icon -->
<!DOCTYPE svg PUBLIC "-//W3C//DTD SVG 1.1//EN" "http://www.w3.org/Graphics/SVG/1.1/DTD/svg11.dtd">
<svg version="1.1" xmlns="http://www.w3.org/2000/svg" xmlns:xlink="http://www.w3.org/1999/xlink" x="0px" y="0px" viewBox="0 0 1000 1000" enable-background="new 0 0 1000 1000" xml:space="preserve">
<metadata> Svg Vector Icons : http://www.onlinewebfonts.com/icon </metadata>
<g><path d="M357.1,10.5c-45.4-1.6-77.6,43.4-70.9,85.4c0,17.4,0,34.8,0,52.2c-71.7,0-143.3,0-214.9,0c0,25.5,0,51,0,76.4c285.9,0,571.7,0,857.5,0c0-25.5,0-51,0-76.4c-72.4,0-144.7,0-217.1,0c-3.1-39.4,10.7-85.8-20.7-117.2C659.1,0,612.3,13.4,572.5,10.5C500.7,10.5,428.9,10.5,357.1,10.5z M357.1,80.4c94.5,0,189.1,0,283.6,0c0,22.6,0,45.1,0,67.7c-94.5,0-189.1,0-283.6,0C357.1,125.5,357.1,103,357.1,80.4z M151,290.1c0.5,191.2-1,382.5,0.7,573.6c5.6,75.8,81.2,133.7,156.8,125.5c139.2-0.5,278.5,0.9,417.6-0.7c76.8-5.6,135.6-80.1,127.3-154.7c0-181.2,0-362.6,0-543.8C619.3,290.1,385.2,290.1,151,290.1z M286.2,425.6c22.9,0,45.8,0,68.7,0c0,141.3,0,282.6,0,423.9c-22.9,0-45.8,0-68.7,0C286.2,708.1,286.2,566.9,286.2,425.6z M430.2,425.6c48,0,96,0,144,0c0,141.3,0,282.6,0,423.9c-48,0-96,0-144,0C430.2,708.1,430.2,566.9,430.2,425.6z M640.7,429.9c22.9,0,45.8,0,68.7,0c0,140.6,0,281.1,0,421.7c-22.9,0-45.8,0-68.7,0C640.7,711.1,640.7,570.5,640.7,429.9z"/></g>
</svg>