<?xml version="1.0" encoding="utf-8"?>
<!-- Svg Vector Icons : http://www.onlinewebfonts.com/icon -->
<!DOCTYPE svg PUBLIC "-//W3C//DTD SVG 1.1//EN" "http://www.w3.org/Graphics/SVG/1.1/DTD/svg11.dtd">
<svg version="1.1" xmlns="http://www.w3.org/2000/svg" xmlns:xlink="http://www.w3.org/1999/xlink" x="0px" y="0px" viewBox="0 0 1000 1000" enable-background="new 0 0 1000 1000" xml:space="preserve">
<metadata> Svg Vector Icons : http://www.onlinewebfonts.com/icon </metadata>
<g><path d="M772.2,881.1H118.9V227.8H500l108.9-108.9H64.4c-30.1,0-54.4,24.4-54.4,54.4v762.2c0,30.1,24.4,54.4,54.4,54.4h762.2c30.1,0,54.4-24.4,54.4-54.4V391.1L772.2,500V881.1z"/><path d="M881.1,10h-54.4l-490,490v163.3H500l490-490v-54.4L881.1,10z M445.6,608.9h-54.4v-54.4l54.4-54.4l54.4,54.4L445.6,608.9z M581.7,472.8l-54.4-54.4l299.4-299.4l54.4,54.4L581.7,472.8z"/></g>
</svg>